<?xml version="1.0" encoding="utf-8"?>
<!-- Generator: Adobe Illustrator 16.0.0, SVG Export Plug-In . SVG Version: 6.00 Build 0)  -->
<!DOCTYPE svg PUBLIC "-//W3C//DTD SVG 1.1//EN" "http://www.w3.org/Graphics/SVG/1.1/DTD/svg11.dtd">
<svg version="1.1" id="Layer_1" xmlns="http://www.w3.org/2000/svg" xmlns:xlink="http://www.w3.org/1999/xlink" x="0px" y="0px"
	 width="170px" height="74px" viewBox="0 0 170 74" enable-background="new 0 0 170 74" xml:space="preserve">
<polygon fill="#473077" points="64,28 64,57 63.994,57 31,36.9 31,57 26,57 26,28 26,28 59,48.104 59,28 "/>
<g>
	<g>
		<path fill="#473077" d="M43.311,46.742c-2.934,2.385-6.454,4.075-10.311,4.823v5.078c5.659-0.898,10.762-3.46,14.793-7.17
			L43.311,46.742z"/>
		<path fill="#473077" d="M24,51.565C13.175,49.465,5,39.939,5,28.5C5,15.521,15.521,5,28.5,5S52,15.521,52,28.5
			c0,4.077-1.039,7.91-2.865,11.252l4.271,2.602C55.692,38.252,57,33.53,57,28.5C57,12.759,44.241,0,28.5,0S0,12.759,0,28.5
			c0,14.209,10.398,25.985,24,28.143V51.565z"/>
	</g>
</g>
<rect x="95" y="28" fill="#473077" width="5" height="29"/>
<polygon fill="#473077" points="170,33 170,28 141,28 141,57 170,57 170,52 146,52 146,45 165,45 165,40 146,40 146,33 "/>
<polygon fill="#473077" points="93,28 66,28 66,33 77,33 77,57 82,57 82,33 93,33 "/>
<polygon fill="#473077" points="121,50 120,50 102,28 102,57 107,57 107,42 120,57 121,57 134,41 134,57 139,57 139,28 "/>
<path fill-rule="evenodd" clip-rule="evenodd" fill="#473077" d="M124,62v4h10v2h-10v4.011L136,72v1.987l-14,0.011
	c0-4.662,0-9.328,0-13.987L136,60v2H124z M119,65v9h2V60.011L111.5,71L102,60v14h2v-9l7.5,9L119,65z M137.039,60.011L137,74h8.792
	c7,0,7-14,0-13.989H137H137.039z M146,62c4,0,4,10,0,10h-7V62H146z M157.375,74c0.427-1.552,0.8-2.829,1.292-4H168v4h2V60.035
	c-2.732,0-10.833-0.826-14.75,13.965H157.375z M159.583,68c3.47-6.391,8.417-6.013,8.417-6v6H159.583z M152,74h2V60h-2V74z"/>
</svg>
